<svg width="24" height="24" viewBox="0 0 24 24" fill="none" xmlns="http://www.w3.org/2000/svg">
<path d="M17.2822 5.48476C18.5182 5.48476 19.6224 5.76243 20.5908 6.32069H20.5898C21.5688 6.86722 22.3317 7.63643 22.8779 8.62636C23.4244 9.61682 23.6973 10.7426 23.6973 12.0004C23.6972 13.247 23.425 14.3722 22.8789 15.3734H22.8779C22.3317 16.3635 21.5687 17.138 20.5898 17.6957V17.6967C19.6216 18.2435 18.5179 18.515 17.2822 18.515C16.0577 18.515 14.9546 18.2431 13.9756 17.6967L13.9746 17.6957C12.9959 17.138 12.2327 16.3634 11.6865 15.3734V15.3725C11.1516 14.3823 10.8848 13.2576 10.8848 12.0004C10.8848 10.7429 11.1515 9.61765 11.6865 8.62733V8.62636L11.9014 8.26601C12.4255 7.44808 13.111 6.79906 13.958 6.32069L14.3311 6.1244C15.2163 5.69734 16.2007 5.48478 17.2822 5.48476ZM17.2822 7.55995C16.4687 7.55998 15.7587 7.74707 15.1484 8.11757H15.1475C14.5487 8.47692 14.0787 8.98838 13.7393 9.65565L13.7402 9.65663C13.4118 10.3244 13.2461 11.105 13.2461 12.0004C13.2461 12.8956 13.4119 13.6755 13.7402 14.3432C14.0797 15.0107 14.5485 15.5228 15.1475 15.8822L15.3809 16.0082C15.937 16.2839 16.5699 16.4232 17.2822 16.4232C18.0963 16.4232 18.8075 16.242 19.418 15.8822C20.0282 15.5226 20.4971 15.0103 20.8252 14.3432V14.3422C21.1643 13.6748 21.3359 12.8951 21.3359 12.0004C21.3359 11.1055 21.1644 10.3251 20.8252 9.65761V9.65663C20.4971 8.98947 20.0282 8.47719 19.418 8.11757H19.417C18.8067 7.74704 18.0958 7.55995 17.2822 7.55995Z" fill="white" stroke="white" stroke-width="0.193333"/>
<mask id="path-3-outside-1_1700_3625" maskUnits="userSpaceOnUse" x="-0.599609" y="4.7155" width="11" height="14" fill="black">
<rect fill="white" x="-0.599609" y="4.7155" width="11" height="14"/>
<path d="M4.83594 5.7155C5.49681 5.71551 6.08533 5.86177 6.60059 6.153C7.12684 6.43303 7.53599 6.83664 7.82715 7.36296C8.12936 7.87808 8.28025 8.46601 8.28027 9.12663C8.28027 9.5746 8.15746 10.0396 7.91113 10.5212C7.73986 10.8637 7.52875 11.1641 7.28027 11.4235C7.44432 11.5129 7.60466 11.6094 7.75977 11.7145C8.21887 12.0169 8.59457 12.4422 8.88574 12.9909C9.18819 13.5398 9.33887 14.0949 9.33887 14.655C9.33884 15.3494 9.19356 15.9713 8.90234 16.5202C8.6111 17.069 8.20221 17.5005 7.67578 17.8141C7.14933 18.1278 6.55539 18.2838 5.89453 18.2839H0.400391V5.7155H4.83594ZM2.56738 16.402H5.55859C6.05137 16.402 6.44317 16.2449 6.73438 15.9313C7.03669 15.6177 7.18845 15.1925 7.18848 14.655C7.18848 14.0837 7.03682 13.6243 6.73438 13.277C6.44318 12.9299 6.05134 12.7566 5.55859 12.7565H2.56738V16.402ZM2.56738 10.8913H4.68457C5.12144 10.8801 5.46892 10.7284 5.72656 10.4372C5.9953 10.146 6.12988 9.76498 6.12988 9.2946C6.12985 8.77952 5.98985 8.36502 5.70996 8.05144C5.42999 7.73787 5.04889 7.58081 4.56738 7.58073H2.56738V10.8913Z"/>
</mask>
<path d="M4.83594 5.7155C5.49681 5.71551 6.08533 5.86177 6.60059 6.153C7.12684 6.43303 7.53599 6.83664 7.82715 7.36296C8.12936 7.87808 8.28025 8.46601 8.28027 9.12663C8.28027 9.5746 8.15746 10.0396 7.91113 10.5212C7.73986 10.8637 7.52875 11.1641 7.28027 11.4235C7.44432 11.5129 7.60466 11.6094 7.75977 11.7145C8.21887 12.0169 8.59457 12.4422 8.88574 12.9909C9.18819 13.5398 9.33887 14.0949 9.33887 14.655C9.33884 15.3494 9.19356 15.9713 8.90234 16.5202C8.6111 17.069 8.20221 17.5005 7.67578 17.8141C7.14933 18.1278 6.55539 18.2838 5.89453 18.2839H0.400391V5.7155H4.83594ZM2.56738 16.402H5.55859C6.05137 16.402 6.44317 16.2449 6.73438 15.9313C7.03669 15.6177 7.18845 15.1925 7.18848 14.655C7.18848 14.0837 7.03682 13.6243 6.73438 13.277C6.44318 12.9299 6.05134 12.7566 5.55859 12.7565H2.56738V16.402ZM2.56738 10.8913H4.68457C5.12144 10.8801 5.46892 10.7284 5.72656 10.4372C5.9953 10.146 6.12988 9.76498 6.12988 9.2946C6.12985 8.77952 5.98985 8.36502 5.70996 8.05144C5.42999 7.73787 5.04889 7.58081 4.56738 7.58073H2.56738V10.8913Z" fill="white"/>
<path d="M4.83594 5.7155L4.83594 5.52217H4.83594V5.7155ZM6.60059 6.153L6.50542 6.32136L6.50977 6.32367L6.60059 6.153ZM7.82715 7.36296L7.65792 7.45658L7.6604 7.46079L7.82715 7.36296ZM8.28027 9.12663H8.47361V9.12663L8.28027 9.12663ZM7.91113 10.5212L7.739 10.4331L7.73821 10.4347L7.91113 10.5212ZM7.28027 11.4235L7.14065 11.2898L6.96584 11.4723L7.18774 11.5933L7.28027 11.4235ZM7.75977 11.7145L7.65133 11.8746L7.65342 11.876L7.75977 11.7145ZM8.88574 12.9909L8.71494 13.0815L8.71641 13.0842L8.88574 12.9909ZM9.33887 14.655L9.5322 14.655V14.655H9.33887ZM8.90234 16.5202L9.07312 16.6108L9.07312 16.6108L8.90234 16.5202ZM7.67578 17.8141L7.77473 17.9802H7.77473L7.67578 17.8141ZM5.89453 18.2839V18.4772H5.89454L5.89453 18.2839ZM0.400391 18.2839H0.207057V18.4772H0.400391V18.2839ZM0.400391 5.7155V5.52217H0.207057V5.7155H0.400391ZM2.56738 16.402H2.37405V16.5954H2.56738V16.402ZM5.55859 16.402V16.5954H5.55861L5.55859 16.402ZM6.73438 15.9313L6.59516 15.7971L6.5927 15.7998L6.73438 15.9313ZM7.18848 14.655L7.38181 14.655V14.655H7.18848ZM6.73438 13.277L6.58623 13.4013L6.58859 13.404L6.73438 13.277ZM5.55859 12.7565L5.55861 12.5632H5.55859V12.7565ZM2.56738 12.7565V12.5632H2.37405V12.7565H2.56738ZM2.56738 10.8913H2.37405V11.0846H2.56738V10.8913ZM4.68457 10.8913V11.0847L4.68953 11.0846L4.68457 10.8913ZM5.72656 10.4372L5.58445 10.306L5.58176 10.3091L5.72656 10.4372ZM6.12988 9.2946H6.32322V9.29459L6.12988 9.2946ZM5.70996 8.05144L5.8542 7.9227L5.85418 7.92267L5.70996 8.05144ZM4.56738 7.58073L4.56741 7.3874H4.56738V7.58073ZM2.56738 7.58073V7.3874H2.37405V7.58073H2.56738ZM4.83594 5.7155L4.83593 5.90883C5.46732 5.90884 6.02239 6.04827 6.50546 6.32131L6.60059 6.153L6.69572 5.98469C6.14826 5.67526 5.5263 5.52218 4.83594 5.52217L4.83594 5.7155ZM6.60059 6.153L6.50977 6.32367C7.00268 6.58597 7.38476 6.96265 7.65798 7.45655L7.82715 7.36296L7.99632 7.26938C7.68723 6.71063 7.25099 6.2801 6.69141 5.98233L6.60059 6.153ZM7.82715 7.36296L7.6604 7.46079C7.94338 7.94313 8.08692 8.49661 8.08694 9.12664L8.28027 9.12663L8.47361 9.12663C8.47359 8.43542 8.31535 7.81303 7.9939 7.26513L7.82715 7.36296ZM8.28027 9.12663H8.08694C8.08694 9.53837 7.9742 9.97333 7.73901 10.4331L7.91113 10.5212L8.08325 10.6092C8.34072 10.1059 8.47361 9.61083 8.47361 9.12663H8.28027ZM7.91113 10.5212L7.73821 10.4347C7.57525 10.7606 7.37518 11.0449 7.14065 11.2898L7.28027 11.4235L7.41989 11.5572C7.68231 11.2833 7.90446 10.9668 8.08406 10.6076L7.91113 10.5212ZM7.28027 11.4235L7.18774 11.5933C7.34696 11.6801 7.50192 11.7734 7.65133 11.8746L7.75977 11.7145L7.8682 11.5545C7.70739 11.4455 7.54169 11.3458 7.37281 11.2538L7.28027 11.4235ZM7.75977 11.7145L7.65342 11.876C8.0822 12.1584 8.43705 12.5578 8.71496 13.0815L8.88574 12.9909L9.05652 12.9003C8.75208 12.3266 8.35554 11.8754 7.86611 11.5531L7.75977 11.7145ZM8.88574 12.9909L8.71641 13.0842C9.00494 13.6078 9.14553 14.1311 9.14553 14.655H9.33887H9.5322C9.5322 14.0587 9.37144 13.4717 9.05507 12.8976L8.88574 12.9909ZM9.33887 14.655L9.14553 14.6549C9.14551 15.3217 9.00626 15.9119 8.73156 16.4296L8.90234 16.5202L9.07312 16.6108C9.38087 16.0308 9.53218 15.3771 9.5322 14.655L9.33887 14.655ZM8.90234 16.5202L8.73157 16.4296C8.45665 16.9476 8.07239 17.3528 7.57683 17.648L7.67578 17.8141L7.77473 17.9802C8.33203 17.6482 8.76556 17.1904 9.07312 16.6108L8.90234 16.5202ZM7.67578 17.8141L7.57683 17.648C7.08279 17.9424 6.52356 18.0905 5.89453 18.0905L5.89453 18.2839L5.89454 18.4772C6.58722 18.4772 7.21587 18.3132 7.77473 17.9802L7.67578 17.8141ZM5.89453 18.2839V18.0905H0.400391V18.2839V18.4772H5.89453V18.2839ZM0.400391 18.2839H0.593724V5.7155H0.400391H0.207057V18.2839H0.400391ZM0.400391 5.7155V5.90883H4.83594V5.7155V5.52217H0.400391V5.7155ZM2.56738 16.402V16.5954H5.55859V16.402V16.2087H2.56738V16.402ZM5.55859 16.402L5.55861 16.5954C6.09631 16.5953 6.54267 16.4219 6.87605 16.0629L6.73438 15.9313L6.5927 15.7998C6.34368 16.0679 6.00643 16.2086 5.55858 16.2087L5.55859 16.402ZM6.73438 15.9313L6.87356 16.0655C7.21821 15.708 7.38178 15.2304 7.38181 14.655L7.18848 14.655L6.99514 14.6549C6.99511 15.1545 6.85518 15.5274 6.59519 15.7971L6.73438 15.9313ZM7.18848 14.655H7.38181C7.38181 14.0485 7.22008 13.5403 6.88016 13.15L6.73438 13.277L6.58859 13.404C6.85356 13.7082 6.99514 14.1188 6.99514 14.655H7.18848ZM6.73438 13.277L6.8825 13.1528C6.55103 12.7576 6.10276 12.5632 5.55861 12.5632L5.55859 12.7565L5.55857 12.9498C5.99992 12.9499 6.33533 13.1021 6.58625 13.4013L6.73438 13.277ZM5.55859 12.7565V12.5632H2.56738V12.7565V12.9498H5.55859V12.7565ZM2.56738 12.7565H2.37405V16.402H2.56738H2.76072V12.7565H2.56738ZM2.56738 10.8913V11.0846H4.68457V10.8913V10.6979H2.56738V10.8913ZM4.68457 10.8913L4.68953 11.0846C5.17281 11.0722 5.57366 10.9018 5.87137 10.5653L5.72656 10.4372L5.58176 10.3091C5.36419 10.555 5.07006 10.688 4.67961 10.698L4.68457 10.8913ZM5.72656 10.4372L5.86865 10.5683C6.1763 10.2349 6.32322 9.80398 6.32322 9.2946H6.12988H5.93655C5.93655 9.72597 5.81429 10.057 5.58448 10.3061L5.72656 10.4372ZM6.12988 9.2946L6.32322 9.29459C6.32318 8.74322 6.17244 8.27926 5.8542 7.9227L5.70996 8.05144L5.56572 8.18017C5.80726 8.45079 5.93652 8.81582 5.93655 9.29461L6.12988 9.2946ZM5.70996 8.05144L5.85418 7.92267C5.53203 7.56188 5.09515 7.38749 4.56741 7.3874L4.56738 7.58073L4.56735 7.77407C5.00262 7.77414 5.32794 7.91386 5.56575 8.1802L5.70996 8.05144ZM4.56738 7.58073V7.3874H2.56738V7.58073V7.77407H4.56738V7.58073ZM2.56738 7.58073H2.37405V10.8913H2.56738H2.76072V7.58073H2.56738Z" fill="white" mask="url(#path-3-outside-1_1700_3625)"/>
</svg>
