<svg width="17" height="10" viewBox="0 0 17 10" fill="none" xmlns="http://www.w3.org/2000/svg">
<path d="M12.3701 8.01547C12.9776 8.01547 13.5111 7.88003 13.9708 7.60915C14.4304 7.33828 14.7834 6.95249 15.0296 6.45178C15.2841 5.95106 15.4113 5.36827 15.4113 4.70339C15.4113 4.03852 15.2841 3.45572 15.0296 2.95501C14.7834 2.4543 14.4304 2.06851 13.9708 1.79763C13.5111 1.51855 12.9776 1.37901 12.3701 1.37901C11.7627 1.37901 11.2292 1.51855 10.7695 1.79763C10.318 2.06851 9.96508 2.4543 9.71063 2.95501C9.46437 3.45572 9.34125 4.03852 9.34125 4.70339C9.34125 5.36827 9.46437 5.95106 9.71063 6.45178C9.96508 6.95249 10.318 7.33828 10.7695 7.60915C11.2292 7.88003 11.7627 8.01547 12.3701 8.01547ZM12.3701 0C13.2648 0 14.0611 0.201105 14.7588 0.603315C15.4647 0.997317 16.0147 1.55138 16.4087 2.26551C16.8027 2.97964 16.9997 3.79226 16.9997 4.70339C16.9997 5.60631 16.8027 6.41894 16.4087 7.14128C16.0147 7.85541 15.4647 8.41357 14.7588 8.81578C14.0611 9.20979 13.2648 9.40679 12.3701 9.40679C11.4836 9.40679 10.6874 9.20979 9.9815 8.81578C9.27558 8.41357 8.72562 7.85541 8.33162 7.14128C7.94583 6.42715 7.75293 5.61452 7.75293 4.70339C7.75293 3.79226 7.94583 2.97964 8.33162 2.26551C8.72562 1.55138 9.27148 0.997317 9.96919 0.603315C10.6751 0.201105 11.4754 0 12.3701 0Z" fill="white"/>
<path d="M0 0.0984955H1.58832V3.89076H3.68145C3.99337 3.89076 4.29298 3.94822 4.58027 4.06314C4.86756 4.17805 5.13844 4.3217 5.3929 4.49408C5.72944 4.7157 6.00442 5.02762 6.21784 5.42983C6.43946 5.83204 6.55028 6.23835 6.55028 6.64877C6.55028 7.15769 6.44357 7.61325 6.23015 8.01546C6.01673 8.41767 5.71713 8.7337 5.33133 8.96353C4.94554 9.19336 4.5105 9.30828 4.0262 9.30828H0V0.0984955ZM3.77995 7.92928C4.14112 7.92928 4.42841 7.81436 4.64183 7.58452C4.86346 7.35469 4.97427 7.04277 4.97427 6.64877C4.97427 6.23014 4.86346 5.8936 4.64183 5.63914C4.42841 5.38468 4.14112 5.25745 3.77995 5.25745H1.58832V7.92928H3.77995ZM3.1397 3.89076C3.45983 3.88255 3.71429 3.77174 3.90308 3.55832C4.10008 3.3449 4.19858 3.06582 4.19858 2.72107C4.19858 2.34348 4.09597 2.03977 3.89077 1.80994C3.68556 1.58011 3.40647 1.46519 3.05351 1.46519H0V0.0984955H3.25051C3.73481 0.0984955 4.16575 0.205204 4.54333 0.418621C4.92912 0.62383 5.22873 0.919332 5.44215 1.30512C5.66377 1.68271 5.77459 2.11365 5.77459 2.59794C5.77459 2.92628 5.68429 3.26692 5.50371 3.61988C5.33133 3.96464 5.1056 4.25193 4.82652 4.48176L3.1397 3.89076Z" fill="white"/>
</svg>
