<svg width="29" height="12" viewBox="0 0 29 12" fill="none" xmlns="http://www.w3.org/2000/svg">
<path d="M17.272 3.76758C17.5693 3.76758 17.8756 3.83317 18.1899 3.96387H18.1909C18.5141 4.08917 18.8098 4.2904 19.0786 4.56543C19.3556 4.83582 19.5728 5.17826 19.73 5.59082L19.7476 5.63574L19.7026 5.65234L18.4136 6.12695L18.3706 6.14258L18.353 6.10059C18.1994 5.72284 18.0256 5.4673 17.8354 5.32617L17.8345 5.3252C17.6471 5.18164 17.4596 5.1123 17.272 5.1123C17.0641 5.11235 16.8872 5.14727 16.7397 5.21484L16.7388 5.21387C16.5983 5.2813 16.4923 5.37206 16.4204 5.48535L16.4214 5.48633C16.355 5.60111 16.3218 5.73157 16.3218 5.87891C16.3218 6.03462 16.375 6.16823 16.4829 6.28223C16.5944 6.39993 16.7344 6.50029 16.9038 6.58203C17.0834 6.6654 17.3318 6.769 17.6479 6.8916C18.1075 7.07283 18.4815 7.24116 18.7681 7.39746L18.9829 7.5293C19.1897 7.67298 19.3728 7.85307 19.5308 8.07031H19.5298C19.7439 8.35807 19.8491 8.72101 19.8491 9.15527C19.8491 9.59025 19.7374 9.97756 19.5122 10.3154C19.2934 10.6469 18.9757 10.9072 18.562 11.0977C18.154 11.2819 17.6719 11.374 17.1177 11.374C16.6402 11.374 16.1947 11.2579 15.7827 11.0264L15.6079 10.9199C15.1556 10.6118 14.766 10.1858 14.4399 9.64453L14.4155 9.60352L14.4575 9.5791L15.6499 8.90039L15.6919 8.87695L15.7153 8.91895C15.9464 9.34896 16.1772 9.63864 16.4067 9.79395L16.5854 9.89746C16.764 9.98559 16.9417 10.0283 17.1177 10.0283C17.5331 10.0283 17.8261 9.94782 18.0073 9.79688C18.1958 9.63876 18.2915 9.42688 18.2915 9.15527C18.2915 8.99953 18.2376 8.86894 18.1304 8.76172L18.1294 8.76074C18.0246 8.64993 17.8879 8.55684 17.7183 8.48145V8.48047C17.5525 8.40395 17.3182 8.3141 17.0151 8.21094H17.0142C16.5479 8.04258 16.1642 7.88314 15.8647 7.7334H15.8638C15.5663 7.57469 15.3093 7.34662 15.0923 7.05078C14.8719 6.74355 14.7632 6.35135 14.7632 5.87891C14.7632 5.45086 14.869 5.07667 15.0815 4.75781C15.2936 4.43976 15.5879 4.19477 15.9634 4.02344H15.9644C16.346 3.85239 16.7822 3.76763 17.272 3.76758Z" fill="white" stroke="white" stroke-width="0.0947099"/>
<mask id="path-2-outside-1_1906_7467" maskUnits="userSpaceOnUse" x="-0.905273" y="2.89209" width="7" height="9" fill="black">
<rect fill="white" x="-0.905273" y="2.89209" width="7" height="9"/>
<path d="M2.82812 3.89209C3.21579 3.8921 3.56156 3.97605 3.86523 4.14404C4.17537 4.31205 4.41404 4.54837 4.58203 4.85205C4.75644 5.15572 4.84375 5.50152 4.84375 5.88916C4.84368 6.14744 4.77286 6.41856 4.63086 6.70264C4.53653 6.89579 4.42008 7.06414 4.28516 7.21045C4.38627 7.26659 4.48219 7.32639 4.57227 7.39111C4.83708 7.5655 5.05371 7.81102 5.22168 8.12744C5.39615 8.44407 5.4834 8.76432 5.4834 9.0874C5.48339 9.50089 5.39611 9.87215 5.22168 10.2017C5.05371 10.5247 4.81495 10.7799 4.50488 10.9673C4.20119 11.1482 3.85547 11.2388 3.46777 11.2388H0.0947266V3.89209H2.82812ZM1.56836 9.979H3.19629C3.4483 9.979 3.64593 9.90166 3.78809 9.74658C3.9366 9.58507 4.01073 9.36513 4.01074 9.0874C4.01074 8.7837 3.93671 8.5441 3.78809 8.36963C3.64593 8.19518 3.44828 8.10791 3.19629 8.10791H1.56836V9.979ZM1.56836 6.84814H2.64355C2.86963 6.84169 3.04753 6.76755 3.17676 6.62549C3.31245 6.47687 3.38086 6.27924 3.38086 6.03369C3.38078 5.76252 3.31238 5.54904 3.17676 5.39404C3.04117 5.23282 2.85394 5.15195 2.61523 5.15186H1.56836V6.84814Z"/>
</mask>
<path d="M2.82812 3.89209C3.21579 3.8921 3.56156 3.97605 3.86523 4.14404C4.17537 4.31205 4.41404 4.54837 4.58203 4.85205C4.75644 5.15572 4.84375 5.50152 4.84375 5.88916C4.84368 6.14744 4.77286 6.41856 4.63086 6.70264C4.53653 6.89579 4.42008 7.06414 4.28516 7.21045C4.38627 7.26659 4.48219 7.32639 4.57227 7.39111C4.83708 7.5655 5.05371 7.81102 5.22168 8.12744C5.39615 8.44407 5.4834 8.76432 5.4834 9.0874C5.48339 9.50089 5.39611 9.87215 5.22168 10.2017C5.05371 10.5247 4.81495 10.7799 4.50488 10.9673C4.20119 11.1482 3.85547 11.2388 3.46777 11.2388H0.0947266V3.89209H2.82812ZM1.56836 9.979H3.19629C3.4483 9.979 3.64593 9.90166 3.78809 9.74658C3.9366 9.58507 4.01073 9.36513 4.01074 9.0874C4.01074 8.7837 3.93671 8.5441 3.78809 8.36963C3.64593 8.19518 3.44828 8.10791 3.19629 8.10791H1.56836V9.979ZM1.56836 6.84814H2.64355C2.86963 6.84169 3.04753 6.76755 3.17676 6.62549C3.31245 6.47687 3.38086 6.27924 3.38086 6.03369C3.38078 5.76252 3.31238 5.54904 3.17676 5.39404C3.04117 5.23282 2.85394 5.15195 2.61523 5.15186H1.56836V6.84814Z" fill="white"/>
<path d="M2.82812 3.89209L2.82813 3.79738H2.82812V3.89209ZM3.86523 4.14404L3.81939 4.22692L3.82012 4.22732L3.86523 4.14404ZM4.58203 4.85205L4.49915 4.8979L4.4999 4.89922L4.58203 4.85205ZM4.84375 5.88916L4.93846 5.88919V5.88916H4.84375ZM4.63086 6.70264L4.54614 6.66029L4.54576 6.66107L4.63086 6.70264ZM4.28516 7.21045L4.21553 7.14624L4.13388 7.23478L4.23918 7.29325L4.28516 7.21045ZM4.57227 7.39111L4.51695 7.46809L4.52018 7.47021L4.57227 7.39111ZM5.22168 8.12744L5.13802 8.17185L5.13873 8.17315L5.22168 8.12744ZM5.4834 9.0874L5.57811 9.08741V9.0874H5.4834ZM5.22168 10.2017L5.13797 10.1573L5.13765 10.158L5.22168 10.2017ZM4.50488 10.9673L4.55336 11.0487L4.55387 11.0483L4.50488 10.9673ZM3.46777 11.2388L3.46777 11.3335L3.46777 11.3335L3.46777 11.2388ZM0.0947266 11.2388H1.66744e-05V11.3335H0.0947266V11.2388ZM0.0947266 3.89209V3.79738H1.66744e-05V3.89209H0.0947266ZM1.56836 9.979H1.47365V10.0737H1.56836V9.979ZM3.78809 9.74658L3.71837 9.68248L3.71827 9.68258L3.78809 9.74658ZM4.01074 9.0874L4.10545 9.08741V9.0874H4.01074ZM3.78809 8.36963L3.71465 8.42947L3.71599 8.43105L3.78809 8.36963ZM1.56836 8.10791V8.0132H1.47365V8.10791H1.56836ZM1.56836 6.84814H1.47365V6.94285H1.56836V6.84814ZM2.64355 6.84814V6.94289L2.64626 6.94282L2.64355 6.84814ZM3.17676 6.62549L3.10682 6.56163L3.1067 6.56176L3.17676 6.62549ZM3.38086 6.03369L3.47557 6.03369L3.47557 6.03366L3.38086 6.03369ZM3.17676 5.39404L3.10426 5.45502L3.10548 5.45641L3.17676 5.39404ZM2.61523 5.15186L2.61527 5.05715H2.61523V5.15186ZM1.56836 5.15186V5.05715H1.47365V5.15186H1.56836ZM2.82812 3.89209L2.82812 3.9868C3.20168 3.98681 3.53134 4.06757 3.81939 4.22692L3.86523 4.14404L3.91108 4.06117C3.59177 3.88453 3.22991 3.79739 2.82813 3.79738L2.82812 3.89209ZM3.86523 4.14404L3.82012 4.22732C4.11453 4.3868 4.34001 4.6102 4.49916 4.8979L4.58203 4.85205L4.66491 4.80621C4.48806 4.48653 4.23622 4.23729 3.91035 4.06077L3.86523 4.14404ZM4.58203 4.85205L4.4999 4.89922C4.66522 5.18705 4.74904 5.51627 4.74904 5.88916H4.84375H4.93846C4.93846 5.48677 4.84767 5.12439 4.66416 4.80488L4.58203 4.85205ZM4.84375 5.88916L4.74904 5.88913C4.74897 6.12977 4.68304 6.38643 4.54614 6.66029L4.63086 6.70264L4.71557 6.74498C4.86269 6.45068 4.93838 6.1651 4.93846 5.88919L4.84375 5.88916ZM4.63086 6.70264L4.54576 6.66107C4.45546 6.84597 4.34422 7.00669 4.21553 7.14624L4.28516 7.21045L4.35478 7.27465C4.49594 7.12158 4.6176 6.9456 4.71596 6.7442L4.63086 6.70264ZM4.28516 7.21045L4.23918 7.29325C4.33759 7.34789 4.43033 7.40575 4.517 7.46803L4.57227 7.39111L4.62753 7.3142C4.53404 7.24702 4.43495 7.18529 4.33113 7.12765L4.28516 7.21045ZM4.57227 7.39111L4.52018 7.47021C4.7701 7.6348 4.97653 7.86762 5.13803 8.17185L5.22168 8.12744L5.30533 8.08303C5.13088 7.75441 4.90406 7.49621 4.62436 7.31201L4.57227 7.39111ZM5.22168 8.12744L5.13873 8.17315C5.30641 8.47745 5.38869 8.78211 5.38869 9.0874H5.4834H5.57811C5.57811 8.74652 5.48588 8.41068 5.30463 8.08173L5.22168 8.12744ZM5.4834 9.0874L5.38869 9.0874C5.38868 9.48714 5.30443 9.84291 5.13797 10.1573L5.22168 10.2017L5.30538 10.246C5.4878 9.90139 5.5781 9.51465 5.57811 9.08741L5.4834 9.0874ZM5.22168 10.2017L5.13765 10.158C4.97765 10.4657 4.75096 10.7079 4.4559 10.8862L4.50488 10.9673L4.55387 11.0483C4.87894 10.8519 5.12977 10.5837 5.30571 10.2454L5.22168 10.2017ZM4.50488 10.9673L4.45641 10.8859C4.16876 11.0573 3.84009 11.1441 3.46777 11.1441L3.46777 11.2388L3.46777 11.3335C3.87085 11.3335 4.23362 11.2391 4.55336 11.0487L4.50488 10.9673ZM3.46777 11.2388V11.1441H0.0947266V11.2388V11.3335H3.46777V11.2388ZM0.0947266 11.2388H0.189436V3.89209H0.0947266H1.66744e-05V11.2388H0.0947266ZM0.0947266 3.89209V3.9868H2.82812V3.89209V3.79738H0.0947266V3.89209ZM1.56836 9.979V10.0737H3.19629V9.979V9.88429H1.56836V9.979ZM3.19629 9.979V10.0737C3.469 10.0737 3.6942 9.98916 3.8579 9.81058L3.78809 9.74658L3.71827 9.68258C3.59765 9.81417 3.42759 9.88429 3.19629 9.88429V9.979ZM3.78809 9.74658L3.8578 9.81069C4.02637 9.62736 4.10544 9.38225 4.10545 9.08741L4.01074 9.0874L3.91603 9.0874C3.91602 9.34801 3.84683 9.54278 3.71837 9.68248L3.78809 9.74658ZM4.01074 9.0874H4.10545C4.10545 8.76872 4.02763 8.50479 3.86018 8.30821L3.78809 8.36963L3.71599 8.43105C3.84578 8.58341 3.91603 8.79868 3.91603 9.0874H4.01074ZM3.78809 8.36963L3.86151 8.3098C3.69902 8.11041 3.47283 8.0132 3.19629 8.0132V8.10791V8.20262C3.42373 8.20262 3.59284 8.27995 3.71467 8.42946L3.78809 8.36963ZM3.19629 8.10791V8.0132H1.56836V8.10791V8.20262H3.19629V8.10791ZM1.56836 8.10791H1.47365V9.979H1.56836H1.66307V8.10791H1.56836ZM1.56836 6.84814V6.94285H2.64355V6.84814V6.75343H1.56836V6.84814ZM2.64355 6.84814L2.64626 6.94282C2.89303 6.93577 3.09716 6.85374 3.24682 6.68922L3.17676 6.62549L3.1067 6.56176C2.99791 6.68135 2.84624 6.74761 2.64085 6.75347L2.64355 6.84814ZM3.17676 6.62549L3.2467 6.68935C3.4016 6.5197 3.47557 6.29753 3.47557 6.03369H3.38086H3.28615C3.28615 6.26094 3.22331 6.43404 3.10682 6.56163L3.17676 6.62549ZM3.38086 6.03369L3.47557 6.03366C3.47549 5.74681 3.40293 5.5087 3.24803 5.33168L3.17676 5.39404L3.10548 5.45641C3.22183 5.58938 3.28608 5.77823 3.28615 6.03372L3.38086 6.03369ZM3.17676 5.39404L3.24924 5.33308C3.09317 5.14752 2.87782 5.05725 2.61527 5.05715L2.61523 5.15186L2.6152 5.24657C2.83007 5.24665 2.98916 5.31813 3.10427 5.455L3.17676 5.39404ZM2.61523 5.15186V5.05715H1.56836V5.15186V5.24657H2.61523V5.15186ZM1.56836 5.15186H1.47365V6.84814H1.56836H1.66307V5.15186H1.56836Z" fill="white" mask="url(#path-2-outside-1_1906_7467)"/>
<mask id="path-4-outside-2_1906_7467" maskUnits="userSpaceOnUse" x="5.31055" y="2.81445" width="9" height="9" fill="black">
<rect fill="white" x="5.31055" y="2.81445" width="9" height="9"/>
<path d="M10.0322 3.81445C10.7493 3.81445 11.3891 3.97592 11.9512 4.29883C12.5198 4.61543 12.9627 5.05837 13.2793 5.62695C13.5959 6.19557 13.7549 6.84174 13.7549 7.56543C13.7549 8.28914 13.5959 8.93527 13.2793 9.50391C12.9627 10.0725 12.5198 10.5187 11.9512 10.8418C11.3891 11.1583 10.7493 11.3164 10.0322 11.3164C9.31509 11.3164 8.67208 11.1584 8.10352 10.8418C7.54136 10.5187 7.10178 10.0725 6.78516 9.50391C6.46861 8.93533 6.31055 8.28905 6.31055 7.56543C6.31056 6.84179 6.46859 6.19554 6.78516 5.62695C7.10178 5.05833 7.54135 4.61545 8.10352 4.29883C8.67208 3.97578 9.31509 3.81449 10.0322 3.81445ZM10.0322 5.09375C9.57367 5.09379 9.1734 5.19435 8.83105 5.39453C8.49513 5.59479 8.23659 5.8822 8.05566 6.25684C7.87474 6.62514 7.78419 7.06144 7.78418 7.56543C7.78418 8.06944 7.87474 8.50901 8.05566 8.88379C8.23659 9.25198 8.49513 9.53606 8.83105 9.73633C9.17342 9.93653 9.57365 10.0371 10.0322 10.0371C10.491 10.0371 10.8886 9.93664 11.2246 9.73633C11.567 9.53603 11.8289 9.25203 12.0098 8.88379C12.1907 8.50901 12.2812 8.06944 12.2812 7.56543C12.2812 7.06144 12.1907 6.62514 12.0098 6.25684C11.9866 6.20889 11.9623 6.16228 11.9365 6.11719C11.8348 6.49783 11.4889 6.77825 11.0762 6.77832C10.5836 6.77832 10.1846 6.37927 10.1846 5.88672C10.1846 5.57929 10.3395 5.30781 10.5762 5.14746C10.4056 5.11236 10.2243 5.09375 10.0322 5.09375Z"/>
</mask>
<path d="M10.0322 3.81445C10.7493 3.81445 11.3891 3.97592 11.9512 4.29883C12.5198 4.61543 12.9627 5.05837 13.2793 5.62695C13.5959 6.19557 13.7549 6.84174 13.7549 7.56543C13.7549 8.28914 13.5959 8.93527 13.2793 9.50391C12.9627 10.0725 12.5198 10.5187 11.9512 10.8418C11.3891 11.1583 10.7493 11.3164 10.0322 11.3164C9.31509 11.3164 8.67208 11.1584 8.10352 10.8418C7.54136 10.5187 7.10178 10.0725 6.78516 9.50391C6.46861 8.93533 6.31055 8.28905 6.31055 7.56543C6.31056 6.84179 6.46859 6.19554 6.78516 5.62695C7.10178 5.05833 7.54135 4.61545 8.10352 4.29883C8.67208 3.97578 9.31509 3.81449 10.0322 3.81445ZM10.0322 5.09375C9.57367 5.09379 9.1734 5.19435 8.83105 5.39453C8.49513 5.59479 8.23659 5.8822 8.05566 6.25684C7.87474 6.62514 7.78419 7.06144 7.78418 7.56543C7.78418 8.06944 7.87474 8.50901 8.05566 8.88379C8.23659 9.25198 8.49513 9.53606 8.83105 9.73633C9.17342 9.93653 9.57365 10.0371 10.0322 10.0371C10.491 10.0371 10.8886 9.93664 11.2246 9.73633C11.567 9.53603 11.8289 9.25203 12.0098 8.88379C12.1907 8.50901 12.2812 8.06944 12.2812 7.56543C12.2812 7.06144 12.1907 6.62514 12.0098 6.25684C11.9866 6.20889 11.9623 6.16228 11.9365 6.11719C11.8348 6.49783 11.4889 6.77825 11.0762 6.77832C10.5836 6.77832 10.1846 6.37927 10.1846 5.88672C10.1846 5.57929 10.3395 5.30781 10.5762 5.14746C10.4056 5.11236 10.2243 5.09375 10.0322 5.09375Z" fill="white"/>
<path d="M10.0322 3.81445L10.0322 3.71974L10.0322 3.71974L10.0322 3.81445ZM11.9512 4.29883L11.904 4.38096L11.9051 4.38158L11.9512 4.29883ZM13.2793 5.62695L13.362 5.58088L13.362 5.58088L13.2793 5.62695ZM13.7549 7.56543L13.8496 7.56543L13.8496 7.56543L13.7549 7.56543ZM13.2793 9.50391L13.362 9.54998L13.362 9.54998L13.2793 9.50391ZM11.9512 10.8418L11.9976 10.9243L11.998 10.9241L11.9512 10.8418ZM10.0322 11.3164L10.0322 11.4111H10.0322V11.3164ZM8.10352 10.8418L8.05632 10.9239L8.05744 10.9245L8.10352 10.8418ZM6.78516 9.50391L6.70241 9.54998L6.70241 9.54998L6.78516 9.50391ZM6.31055 7.56543L6.21584 7.56543V7.56543H6.31055ZM6.78516 5.62695L6.70241 5.58088L6.70241 5.58088L6.78516 5.62695ZM8.10352 4.29883L8.14999 4.38135L8.1503 4.38117L8.10352 4.29883ZM10.0322 5.09375L10.0322 4.99904L10.0322 4.99904L10.0322 5.09375ZM8.83105 5.39453L8.78325 5.31277L8.78256 5.31318L8.83105 5.39453ZM8.05566 6.25684L8.14067 6.29859L8.14095 6.29802L8.05566 6.25684ZM7.78418 7.56543L7.68947 7.56543V7.56543H7.78418ZM8.05566 8.88379L7.97037 8.92497L7.97066 8.92556L8.05566 8.88379ZM8.83105 9.73633L8.78256 9.81768L8.78325 9.81809L8.83105 9.73633ZM10.0322 10.0371L10.0322 10.1318H10.0322V10.0371ZM11.2246 9.73633L11.1768 9.65457L11.1761 9.65498L11.2246 9.73633ZM12.0098 8.88379L12.0948 8.92555L12.0951 8.92496L12.0098 8.88379ZM12.2812 7.56543L12.376 7.56543L12.376 7.56543L12.2812 7.56543ZM12.0098 6.25684L11.9245 6.29802L11.9248 6.29859L12.0098 6.25684ZM11.9365 6.11719L12.0187 6.07016L11.9044 5.87035L11.845 6.09274L11.9365 6.11719ZM11.0762 6.77832L11.0762 6.87303L11.0762 6.87303L11.0762 6.77832ZM10.1846 5.88672L10.0899 5.88672V5.88672H10.1846ZM10.5762 5.14746L10.6293 5.22587L10.8152 5.09995L10.5953 5.0547L10.5762 5.14746ZM10.0322 3.81445V3.90916C10.7345 3.90916 11.3578 4.06714 11.904 4.38095L11.9512 4.29883L11.9984 4.21671C11.4204 3.88469 10.764 3.71974 10.0322 3.71974V3.81445ZM11.9512 4.29883L11.9051 4.38158C12.4583 4.68961 12.8885 5.11984 13.1966 5.67303L13.2793 5.62695L13.362 5.58088C13.0368 4.9969 12.5812 4.54126 11.9972 4.21608L11.9512 4.29883ZM13.2793 5.62695L13.1965 5.67303C13.5045 6.22608 13.6602 6.85609 13.6602 7.56543L13.7549 7.56543L13.8496 7.56543C13.8496 6.82739 13.6873 6.16506 13.362 5.58088L13.2793 5.62695ZM13.7549 7.56543H13.6602C13.6602 8.27479 13.5045 8.90476 13.1965 9.45783L13.2793 9.50391L13.362 9.54998C13.6873 8.96578 13.8496 8.30349 13.8496 7.56543H13.7549ZM13.2793 9.50391L13.1966 9.45783C12.8884 10.0112 12.458 10.4449 11.9044 10.7595L11.9512 10.8418L11.998 10.9241C12.5816 10.5925 13.0369 10.1338 13.362 9.54998L13.2793 9.50391ZM11.9512 10.8418L11.9047 10.7593C11.3584 11.0669 10.7349 11.2217 10.0322 11.2217V11.3164V11.4111C10.7637 11.4111 11.4198 11.2496 11.9976 10.9243L11.9512 10.8418ZM10.0322 11.3164L10.0322 11.2217C9.3295 11.2217 8.70263 11.067 8.14959 10.759L8.10352 10.8418L8.05744 10.9245C8.64152 11.2498 9.30068 11.4111 10.0322 11.4111L10.0322 11.3164ZM8.10352 10.8418L8.15071 10.7597C7.60352 10.4452 7.1762 10.0115 6.8679 9.45783L6.78516 9.50391L6.70241 9.54998C7.02735 10.1336 7.4792 10.5922 8.05632 10.9239L8.10352 10.8418ZM6.78516 9.50391L6.86791 9.45784C6.56007 8.90489 6.40526 8.2748 6.40526 7.56543H6.31055H6.21584C6.21584 8.30331 6.37716 8.96576 6.70241 9.54998L6.78516 9.50391ZM6.31055 7.56543L6.40526 7.56543C6.40526 6.85605 6.56004 6.22597 6.86791 5.67302L6.78516 5.62695L6.70241 5.58088C6.37713 6.16511 6.21585 6.82754 6.21584 7.56543L6.31055 7.56543ZM6.78516 5.62695L6.8679 5.67303C7.17611 5.11952 7.60319 4.68932 8.14999 4.38135L8.10352 4.29883L8.05704 4.21631C7.47951 4.54158 7.02745 4.99713 6.70241 5.58088L6.78516 5.62695ZM8.10352 4.29883L8.1503 4.38117C8.70323 4.06701 9.32984 3.9092 10.0322 3.90916L10.0322 3.81445L10.0322 3.71974C9.30034 3.71979 8.64092 3.88455 8.05673 4.21648L8.10352 4.29883ZM10.0322 5.09375L10.0322 4.99904C9.55944 4.99908 9.14217 5.1029 8.78325 5.31277L8.83105 5.39453L8.87886 5.47629C9.20463 5.2858 9.5879 5.1885 10.0322 5.18846L10.0322 5.09375ZM8.83105 5.39453L8.78256 5.31318C8.42969 5.52354 8.15883 5.82541 7.97038 6.21565L8.05566 6.25684L8.14095 6.29802C8.31434 5.93899 8.56058 5.66604 8.87955 5.47588L8.83105 5.39453ZM8.05566 6.25684L7.97066 6.21508C7.78207 6.599 7.68948 7.05019 7.68947 7.56543L7.78418 7.56543L7.87889 7.56543C7.8789 7.07268 7.96742 6.65128 8.14067 6.29859L8.05566 6.25684ZM7.78418 7.56543H7.68947C7.68947 8.08075 7.78208 8.53492 7.97037 8.92496L8.05566 8.88379L8.14096 8.84261C7.96739 8.48309 7.87889 8.05814 7.87889 7.56543H7.78418ZM8.05566 8.88379L7.97066 8.92556C8.15926 9.30938 8.43012 9.60757 8.78256 9.81768L8.83105 9.73633L8.87955 9.65498C8.56013 9.46455 8.31391 9.19458 8.14067 8.84202L8.05566 8.88379ZM8.83105 9.73633L8.78325 9.81809C9.14219 10.028 9.55942 10.1318 10.0322 10.1318L10.0322 10.0371L10.0322 9.9424C9.58787 9.94236 9.20464 9.84507 8.87886 9.65457L8.83105 9.73633ZM10.0322 10.0371V10.1318C10.5051 10.1318 10.9201 10.0281 11.2731 9.81768L11.2246 9.73633L11.1761 9.65498C10.8571 9.84516 10.4769 9.9424 10.0322 9.9424V10.0371ZM11.2246 9.73633L11.2724 9.81808C11.6314 9.60809 11.9059 9.30993 12.0948 8.92555L12.0098 8.88379L11.9248 8.84203C11.7518 9.19414 11.5026 9.46398 11.1768 9.65458L11.2246 9.73633ZM12.0098 8.88379L12.0951 8.92496C12.2834 8.53492 12.376 8.08075 12.376 7.56543H12.2812H12.1865C12.1865 8.05814 12.098 8.48309 11.9245 8.84261L12.0098 8.88379ZM12.2812 7.56543L12.376 7.56543C12.376 7.05019 12.2834 6.599 12.0948 6.21508L12.0098 6.25684L11.9248 6.29859C12.098 6.65128 12.1865 7.07268 12.1865 7.56543L12.2812 7.56543ZM12.0098 6.25684L12.0951 6.21566C12.0711 6.166 12.0458 6.11741 12.0187 6.07016L11.9365 6.11719L11.8543 6.16422C11.8789 6.20715 11.9022 6.25179 11.9245 6.29802L12.0098 6.25684ZM11.9365 6.11719L11.845 6.09274C11.7541 6.43316 11.4447 6.68355 11.0762 6.68361L11.0762 6.77832L11.0762 6.87303C11.533 6.87296 11.9156 6.5625 12.028 6.14163L11.9365 6.11719ZM11.0762 6.77832V6.68361C10.6359 6.68361 10.2793 6.32697 10.2793 5.88672H10.1846H10.0899C10.0899 6.43158 10.5313 6.87303 11.0762 6.87303V6.77832ZM10.1846 5.88672L10.2793 5.88672C10.2793 5.61184 10.4177 5.36925 10.6293 5.22587L10.5762 5.14746L10.5231 5.06905C10.2613 5.24638 10.0899 5.54674 10.0899 5.88672L10.1846 5.88672ZM10.5762 5.14746L10.5953 5.0547C10.4182 5.01825 10.2304 4.99904 10.0322 4.99904V5.09375V5.18846C10.2181 5.18846 10.3931 5.20647 10.5571 5.24023L10.5762 5.14746Z" fill="white" mask="url(#path-4-outside-2_1906_7467)"/>
<mask id="path-6-outside-3_1906_7467" maskUnits="userSpaceOnUse" x="19.6353" y="2.81445" width="9" height="9" fill="black">
<rect fill="white" x="19.6353" y="2.81445" width="9" height="9"/>
<path d="M24.3569 3.81445C25.0742 3.81445 25.7147 3.97574 26.2769 4.29883C26.8454 4.61544 27.2874 5.05842 27.604 5.62695C27.9206 6.19559 28.0796 6.84172 28.0796 7.56543C28.0796 8.28909 27.9206 8.93531 27.604 9.50391C27.2874 10.0724 26.8454 10.5188 26.2769 10.8418C25.7147 11.1584 25.0742 11.3164 24.3569 11.3164C23.6399 11.3163 22.9967 11.1584 22.4282 10.8418C21.8661 10.5187 21.4265 10.0725 21.1099 9.50391C20.7933 8.93534 20.6353 8.28903 20.6353 7.56543C20.6353 6.84186 20.7934 6.1955 21.1099 5.62695C21.4264 5.05839 21.8662 4.61544 22.4282 4.29883C22.9967 3.97581 23.6399 3.81452 24.3569 3.81445ZM24.3569 5.09375C23.8984 5.09381 23.4981 5.1943 23.1558 5.39453C22.8198 5.59483 22.5613 5.8821 22.3804 6.25684C22.1994 6.62515 22.1089 7.06142 22.1089 7.56543C22.1089 8.06939 22.1995 8.50904 22.3804 8.88379C22.5613 9.25194 22.8199 9.53608 23.1558 9.73633C23.4981 9.93652 23.8984 10.037 24.3569 10.0371C24.8157 10.0371 25.2133 9.93659 25.5493 9.73633C25.8917 9.53607 26.1535 9.25196 26.3345 8.88379C26.5154 8.50904 26.6059 8.06939 26.606 7.56543C26.606 7.06142 26.5154 6.62515 26.3345 6.25684C26.2777 6.13924 26.2118 6.03108 26.1392 5.93066C26.1162 6.40274 25.7282 6.77828 25.2505 6.77832C24.7579 6.77832 24.3589 6.37927 24.3589 5.88672C24.3589 5.56456 24.5296 5.28271 24.7856 5.12598C24.6494 5.10477 24.5062 5.09375 24.3569 5.09375Z"/>
</mask>
<path d="M24.3569 3.81445C25.0742 3.81445 25.7147 3.97574 26.2769 4.29883C26.8454 4.61544 27.2874 5.05842 27.604 5.62695C27.9206 6.19559 28.0796 6.84172 28.0796 7.56543C28.0796 8.28909 27.9206 8.93531 27.604 9.50391C27.2874 10.0724 26.8454 10.5188 26.2769 10.8418C25.7147 11.1584 25.0742 11.3164 24.3569 11.3164C23.6399 11.3163 22.9967 11.1584 22.4282 10.8418C21.8661 10.5187 21.4265 10.0725 21.1099 9.50391C20.7933 8.93534 20.6353 8.28903 20.6353 7.56543C20.6353 6.84186 20.7934 6.1955 21.1099 5.62695C21.4264 5.05839 21.8662 4.61544 22.4282 4.29883C22.9967 3.97581 23.6399 3.81452 24.3569 3.81445ZM24.3569 5.09375C23.8984 5.09381 23.4981 5.1943 23.1558 5.39453C22.8198 5.59483 22.5613 5.8821 22.3804 6.25684C22.1994 6.62515 22.1089 7.06142 22.1089 7.56543C22.1089 8.06939 22.1995 8.50904 22.3804 8.88379C22.5613 9.25194 22.8199 9.53608 23.1558 9.73633C23.4981 9.93652 23.8984 10.037 24.3569 10.0371C24.8157 10.0371 25.2133 9.93659 25.5493 9.73633C25.8917 9.53607 26.1535 9.25196 26.3345 8.88379C26.5154 8.50904 26.6059 8.06939 26.606 7.56543C26.606 7.06142 26.5154 6.62515 26.3345 6.25684C26.2777 6.13924 26.2118 6.03108 26.1392 5.93066C26.1162 6.40274 25.7282 6.77828 25.2505 6.77832C24.7579 6.77832 24.3589 6.37927 24.3589 5.88672C24.3589 5.56456 24.5296 5.28271 24.7856 5.12598C24.6494 5.10477 24.5062 5.09375 24.3569 5.09375Z" fill="white"/>
<path d="M24.3569 3.81445L24.3569 3.71974L24.3569 3.71974L24.3569 3.81445ZM26.2769 4.29883L26.2297 4.38095L26.2308 4.38157L26.2769 4.29883ZM27.604 5.62695L27.6868 5.58088L27.6868 5.58088L27.604 5.62695ZM28.0796 7.56543L28.1743 7.56543V7.56543H28.0796ZM27.604 9.50391L27.6867 9.54999L27.6868 9.54998L27.604 9.50391ZM26.2769 10.8418L26.3233 10.9243L26.3236 10.9241L26.2769 10.8418ZM24.3569 11.3164L24.3569 11.4111H24.3569V11.3164ZM22.4282 10.8418L22.381 10.9239L22.3821 10.9245L22.4282 10.8418ZM21.1099 9.50391L21.0271 9.54998L21.0271 9.54998L21.1099 9.50391ZM20.6353 7.56543L20.5405 7.56543L20.5405 7.56543L20.6353 7.56543ZM21.1099 5.62695L21.0271 5.58088L21.0271 5.58089L21.1099 5.62695ZM22.4282 4.29883L22.4747 4.38135L22.475 4.38117L22.4282 4.29883ZM24.3569 5.09375L24.3569 4.99904L24.3569 4.99904L24.3569 5.09375ZM23.1558 5.39453L23.1079 5.31277L23.1073 5.31318L23.1558 5.39453ZM22.3804 6.25684L22.4654 6.29859L22.4657 6.29801L22.3804 6.25684ZM22.1089 7.56543L22.0142 7.56543L22.0142 7.56543L22.1089 7.56543ZM22.3804 8.88379L22.2951 8.92497L22.2954 8.92556L22.3804 8.88379ZM23.1558 9.73633L23.1073 9.81768L23.108 9.81808L23.1558 9.73633ZM24.3569 10.0371L24.3569 10.1318H24.3569V10.0371ZM25.5493 9.73633L25.5015 9.65457L25.5008 9.65497L25.5493 9.73633ZM26.3345 8.88379L26.4195 8.92556L26.4198 8.92496L26.3345 8.88379ZM26.606 7.56543L26.7007 7.56543V7.56543H26.606ZM26.3345 6.25684L26.2492 6.29801L26.2495 6.29859L26.3345 6.25684ZM26.1392 5.93066L26.2159 5.87513L26.0577 5.65653L26.0446 5.92606L26.1392 5.93066ZM25.2505 6.77832L25.2505 6.87303L25.2505 6.87303L25.2505 6.77832ZM24.3589 5.88672L24.2642 5.88672V5.88672H24.3589ZM24.7856 5.12598L24.8351 5.20675L25.0551 5.07206L24.8002 5.03239L24.7856 5.12598ZM24.3569 3.81445V3.90916C25.0595 3.90916 25.6834 4.06698 26.2297 4.38094L26.2769 4.29883L26.324 4.21671C25.746 3.8845 25.0889 3.71974 24.3569 3.71974V3.81445ZM26.2769 4.29883L26.2308 4.38157C26.7838 4.68958 27.2132 5.11983 27.5213 5.67303L27.604 5.62695L27.6868 5.58088C27.3616 4.997 26.9069 4.5413 26.3229 4.21608L26.2769 4.29883ZM27.604 5.62695L27.5213 5.67303C27.8292 6.2261 27.9849 6.85607 27.9849 7.56543H28.0796H28.1743C28.1743 6.82737 28.012 6.16507 27.6868 5.58088L27.604 5.62695ZM28.0796 7.56543L27.9849 7.56543C27.9849 8.27474 27.8292 8.9048 27.5213 9.45783L27.604 9.50391L27.6868 9.54998C28.012 8.96582 28.1743 8.30344 28.1743 7.56543L28.0796 7.56543ZM27.604 9.50391L27.5213 9.45783C27.2131 10.0112 26.7835 10.445 26.2301 10.7595L26.2769 10.8418L26.3236 10.9241C26.9072 10.5925 27.3617 10.1336 27.6867 9.54999L27.604 9.50391ZM26.2769 10.8418L26.2304 10.7593C25.684 11.067 25.0598 11.2217 24.3569 11.2217V11.3164V11.4111C25.0886 11.4111 25.7454 11.2498 26.3233 10.9243L26.2769 10.8418ZM24.3569 11.3164L24.3569 11.2217C23.6543 11.2216 23.0273 11.067 22.4743 10.759L22.4282 10.8418L22.3821 10.9245C22.9662 11.2497 23.6254 11.4111 24.3569 11.4111L24.3569 11.3164ZM22.4282 10.8418L22.4754 10.7597C21.9282 10.4452 21.5009 10.0115 21.1926 9.45783L21.1099 9.50391L21.0271 9.54998C21.3521 10.1335 21.8039 10.5922 22.381 10.9239L22.4282 10.8418ZM21.1099 9.50391L21.1926 9.45783C20.8848 8.90491 20.73 8.27478 20.73 7.56543L20.6353 7.56543L20.5405 7.56543C20.5406 8.30329 20.7019 8.96577 21.0271 9.54998L21.1099 9.50391ZM20.6353 7.56543H20.73C20.73 6.85612 20.8848 6.22594 21.1926 5.67302L21.1099 5.62695L21.0271 5.58089C20.7019 6.16507 20.5405 6.8276 20.5405 7.56543H20.6353ZM21.1099 5.62695L21.1926 5.67303C21.5008 5.11959 21.928 4.68931 22.4747 4.38135L22.4282 4.29883L22.3817 4.21631C21.8043 4.54158 21.3521 4.9972 21.0271 5.58088L21.1099 5.62695ZM22.4282 4.29883L22.475 4.38117C23.0279 4.06704 23.6546 3.90923 24.3569 3.90916L24.3569 3.81445L24.3569 3.71974C23.6251 3.71981 22.9656 3.88458 22.3814 4.21648L22.4282 4.29883ZM24.3569 5.09375L24.3569 4.99904C23.8841 4.9991 23.4669 5.10284 23.1079 5.31278L23.1558 5.39453L23.2036 5.47628C23.5293 5.28576 23.9126 5.18852 24.3569 5.18846L24.3569 5.09375ZM23.1558 5.39453L23.1073 5.31318C22.7543 5.52358 22.4835 5.82531 22.2951 6.21566L22.3804 6.25684L22.4657 6.29801C22.639 5.93889 22.8852 5.66608 23.2043 5.47588L23.1558 5.39453ZM22.3804 6.25684L22.2954 6.21508C22.1068 6.59901 22.0142 7.05017 22.0142 7.56543H22.1089H22.2036C22.2036 7.07266 22.2921 6.6513 22.4654 6.29859L22.3804 6.25684ZM22.1089 7.56543L22.0142 7.56543C22.0142 8.08069 22.1068 8.53495 22.2951 8.92496L22.3804 8.88379L22.4657 8.84261C22.2921 8.48313 22.2036 8.05809 22.2036 7.56543L22.1089 7.56543ZM22.3804 8.88379L22.2954 8.92556C22.484 9.30933 22.7549 9.60759 23.1073 9.81768L23.1558 9.73633L23.2043 9.65498C22.8849 9.46457 22.6386 9.19454 22.4654 8.84202L22.3804 8.88379ZM23.1558 9.73633L23.108 9.81808C23.4669 10.028 23.8842 10.1318 24.3569 10.1318L24.3569 10.0371L24.3569 9.9424C23.9126 9.94234 23.5293 9.84506 23.2036 9.65457L23.1558 9.73633ZM24.3569 10.0371V10.1318C24.8298 10.1318 25.2448 10.0281 25.5978 9.81768L25.5493 9.73633L25.5008 9.65497C25.1818 9.84511 24.8015 9.9424 24.3569 9.9424V10.0371ZM25.5493 9.73633L25.5971 9.81808C25.9561 9.60812 26.2306 9.30985 26.4195 8.92556L26.3345 8.88379L26.2495 8.84202C26.0765 9.19407 25.8273 9.46402 25.5015 9.65458L25.5493 9.73633ZM26.3345 8.88379L26.4198 8.92496C26.608 8.53495 26.7007 8.08069 26.7007 7.56543L26.606 7.56543L26.5112 7.56543C26.5112 8.05809 26.4227 8.48313 26.2492 8.84261L26.3345 8.88379ZM26.606 7.56543H26.7007C26.7007 7.05017 26.6081 6.59901 26.4195 6.21508L26.3345 6.25684L26.2495 6.29859C26.4227 6.6513 26.5112 7.07266 26.5112 7.56543H26.606ZM26.3345 6.25684L26.4198 6.21566C26.3604 6.09267 26.2916 5.97974 26.2159 5.87513L26.1392 5.93066L26.0624 5.98619C26.1321 6.08243 26.195 6.18581 26.2492 6.29801L26.3345 6.25684ZM26.1392 5.93066L26.0446 5.92606C26.024 6.34819 25.6772 6.68358 25.2505 6.68361L25.2505 6.77832L25.2505 6.87303C25.7793 6.87299 26.2084 6.45729 26.2338 5.93526L26.1392 5.93066ZM25.2505 6.77832V6.68361C24.8102 6.68361 24.4536 6.32697 24.4536 5.88672H24.3589H24.2642C24.2642 6.43158 24.7056 6.87303 25.2505 6.87303V6.77832ZM24.3589 5.88672L24.4536 5.88672C24.4536 5.59892 24.606 5.34701 24.8351 5.20675L24.7856 5.12598L24.7362 5.0452C24.4533 5.21841 24.2642 5.5302 24.2642 5.88672L24.3589 5.88672ZM24.7856 5.12598L24.8002 5.03239C24.6589 5.0104 24.5109 4.99904 24.3569 4.99904V5.09375V5.18846C24.5016 5.18846 24.6398 5.19913 24.7711 5.21956L24.7856 5.12598Z" fill="white" mask="url(#path-6-outside-3_1906_7467)"/>
<path d="M10.2246 0.0576172C10.8784 0.106255 11.5075 0.324884 11.9189 0.623047C12.2461 0.86014 12.3191 1.3174 12.082 1.64453C11.8449 1.97139 11.3876 2.04462 11.0605 1.80762C10.9089 1.69771 10.5533 1.54915 10.1162 1.5166C9.69125 1.48499 9.28347 1.56936 8.9707 1.80176C8.64654 2.04281 8.18837 1.97547 7.94727 1.65137C7.70619 1.32717 7.77345 0.869015 8.09766 0.62793C8.77026 0.127898 9.55892 0.00809658 10.2246 0.0576172Z" fill="white" stroke="white" stroke-width="0.0947099" stroke-linecap="round"/>
<path d="M25.3477 0.817871C25.7515 0.818085 26.0791 1.14543 26.0791 1.54932C26.0789 1.95302 25.7514 2.28055 25.3477 2.28076H23.3721C22.9682 2.28076 22.6408 1.95316 22.6406 1.54932C22.6406 1.1453 22.9681 0.817871 23.3721 0.817871H25.3477Z" fill="white" stroke="white" stroke-width="0.0947099" stroke-linecap="round"/>
</svg>
