<svg width="16" height="9" viewBox="0 0 16 9" fill="none" xmlns="http://www.w3.org/2000/svg">
<path d="M11.0518 7.161C11.5944 7.161 12.0711 7.04 12.4818 6.798C12.8924 6.556 13.2078 6.21133 13.4278 5.764C13.6551 5.31667 13.7688 4.796 13.7688 4.202C13.7688 3.608 13.6551 3.08733 13.4278 2.64C13.2078 2.19267 12.8924 1.848 12.4818 1.606C12.0711 1.35667 11.5944 1.232 11.0518 1.232C10.5091 1.232 10.0324 1.35667 9.62176 1.606C9.21843 1.848 8.90309 2.19267 8.67576 2.64C8.45576 3.08733 8.34576 3.608 8.34576 4.202C8.34576 4.796 8.45576 5.31667 8.67576 5.764C8.90309 6.21133 9.21843 6.556 9.62176 6.798C10.0324 7.04 10.5091 7.161 11.0518 7.161ZM11.0518 0C11.8511 0 12.5624 0.179667 13.1858 0.539001C13.8164 0.891 14.3078 1.386 14.6598 2.024C15.0118 2.662 15.1878 3.388 15.1878 4.202C15.1878 5.00867 15.0118 5.73467 14.6598 6.38C14.3078 7.018 13.8164 7.51667 13.1858 7.876C12.5624 8.228 11.8511 8.404 11.0518 8.404C10.2598 8.404 9.54842 8.228 8.91776 7.876C8.28709 7.51667 7.79576 7.018 7.44376 6.38C7.09909 5.742 6.92676 5.016 6.92676 4.202C6.92676 3.388 7.09909 2.662 7.44376 2.024C7.79576 1.386 8.28342 0.891 8.90676 0.539001C9.53742 0.179667 10.2524 0 11.0518 0Z" fill="white"/>
<path d="M0 0.0879974H1.419V3.476H3.289C3.56767 3.476 3.83533 3.52733 4.092 3.63C4.34867 3.73266 4.59067 3.861 4.818 4.015C5.11867 4.213 5.36433 4.49166 5.555 4.851C5.753 5.21033 5.852 5.57333 5.852 5.94C5.852 6.39466 5.75667 6.80166 5.566 7.161C5.37533 7.52033 5.10767 7.80266 4.763 8.008C4.41833 8.21333 4.02967 8.316 3.597 8.316H0V0.0879974ZM3.377 7.084C3.69967 7.084 3.95633 6.98133 4.147 6.776C4.345 6.57066 4.444 6.292 4.444 5.94C4.444 5.566 4.345 5.26533 4.147 5.038C3.95633 4.81066 3.69967 4.697 3.377 4.697H1.419V7.084H3.377ZM2.805 3.476C3.091 3.46866 3.31833 3.36966 3.487 3.179C3.663 2.98833 3.751 2.739 3.751 2.431C3.751 2.09366 3.65933 1.82233 3.476 1.617C3.29267 1.41166 3.04333 1.309 2.728 1.309H0V0.0879974H2.904C3.33667 0.0879974 3.72167 0.18333 4.059 0.373997C4.40367 0.55733 4.67133 0.82133 4.862 1.166C5.06 1.50333 5.159 1.88833 5.159 2.321C5.159 2.61433 5.07833 2.91866 4.917 3.234C4.763 3.542 4.56133 3.79866 4.312 4.004L2.805 3.476Z" fill="white"/>
</svg>
